<svg version="1.1" xmlns="http://www.w3.org/2000/svg" xmlns:xlink="http://www.w3.org/1999/xlink" viewBox="0 0 172 172" height="68" width="68"><g fill="none" fill-rule="nonzero" stroke="none" stroke-width="1" stroke-linecap="butt" stroke-linejoin="miter" stroke-miterlimit="10" stroke-dasharray="" stroke-dashoffset="0" font-family="none" font-weight="none" font-size="none" text-anchor="none" style="mix-blend-mode: normal"><path d="M0,172v-172h172v172z" fill="none"></path><g fill="#03ad91"><path d="M37.625,21.5c-8.84188,0 -16.125,7.28312 -16.125,16.125v25.08333c0,8.84188 7.28312,16.125 16.125,16.125h25.08333c8.84188,0 16.125,-7.28312 16.125,-16.125v-25.08333c0,-8.84188 -7.28312,-16.125 -16.125,-16.125zM109.29167,21.5c-8.84188,0 -16.125,7.28312 -16.125,16.125v25.08333c0,8.84188 7.28312,16.125 16.125,16.125h25.08333c8.84188,0 16.125,-7.28312 16.125,-16.125v-25.08333c0,-8.84188 -7.28312,-16.125 -16.125,-16.125zM37.625,32.25h25.08333c3.03329,0 5.375,2.34171 5.375,5.375v25.08333c0,3.03329 -2.34171,5.375 -5.375,5.375h-25.08333c-3.03329,0 -5.375,-2.34171 -5.375,-5.375v-25.08333c0,-3.03329 2.34171,-5.375 5.375,-5.375zM109.29167,32.25h25.08333c3.03329,0 5.375,2.34171 5.375,5.375v25.08333c0,3.03329 -2.34171,5.375 -5.375,5.375h-25.08333c-3.03329,0 -5.375,-2.34171 -5.375,-5.375v-25.08333c0,-3.03329 2.34171,-5.375 5.375,-5.375zM43,43v14.33333h14.33333v-14.33333zM114.66667,43v14.33333h14.33333v-14.33333zM37.625,93.16667c-8.84188,0 -16.125,7.28312 -16.125,16.125v25.08333c0,8.84188 7.28312,16.125 16.125,16.125h25.08333c8.84188,0 16.125,-7.28312 16.125,-16.125v-25.08333c0,-8.84188 -7.28312,-16.125 -16.125,-16.125zM93.16667,93.16667v19.70833h19.70833v-19.70833zM112.875,112.875v17.91667h17.91667v-17.91667zM130.79167,112.875h19.70833v-19.70833h-19.70833zM130.79167,130.79167v19.70833h19.70833v-19.70833zM112.875,130.79167h-19.70833v19.70833h19.70833zM37.625,103.91667h25.08333c3.03329,0 5.375,2.34171 5.375,5.375v25.08333c0,3.03329 -2.34171,5.375 -5.375,5.375h-25.08333c-3.03329,0 -5.375,-2.34171 -5.375,-5.375v-25.08333c0,-3.03329 2.34171,-5.375 5.375,-5.375zM43,114.66667v14.33333h14.33333v-14.33333z"></path></g></g></svg>